<svg width="786" height="722" viewBox="0 0 786 722" fill="none" xmlns="http://www.w3.org/2000/svg">
<path d="M76 572C111.45 558.109 132.213 553.795 170.5 551C215.005 552.778 240.324 555.481 276.5 568.5C306.278 578.844 323.944 587.791 341.5 595.996C379.301 618.36 412.196 633.765 460.5 652C496.976 663.035 518.45 667.061 559 669.5C592.424 668.508 609.651 666.65 636.5 660C595.518 684.671 569.169 693.931 520 707.5C475.458 718.555 449.719 721.459 402.5 721C348.23 716.263 318.343 710.722 266.5 693C182.118 661.442 142.132 632.239 76 572Z" fill="white" fill-opacity="0.15"/>
<path d="M0 474.5C51.7816 449.997 82.5494 441.472 142.5 441.5C202.123 444.409 232.91 451.822 283.5 474.5C352.424 513.461 387.772 536.602 453 572C472.197 580.827 482.931 585.103 502 591C521.102 596.441 531.83 599.081 551 603C580.079 606.445 596.395 607.094 625.5 606C654.519 603.693 670.373 600.888 698 593.5C733.693 581.358 752.742 573.091 785.5 556.5C753.116 585.145 732.859 599.256 692.5 620.5C648.076 638.082 621.833 644.171 572 646.5C505.45 642.811 469.318 633.298 407 603C362.935 579.526 337.77 566.553 289 545C243.539 525.072 215.459 518.95 160 518.5C113.067 521.837 89.846 528.575 52.5 547L0 474.5Z" fill="white"/>
<path d="M401 0L245 79L281 176.5L353 237.5L412.5 42.5L410.5 73L421 49.5V333.5L539.5 399.5L540.5 207.5L546.5 201.5L617 136L401 0Z" fill="white" fill-opacity="0.6"/>
<path d="M538 572L600 386H708.5L769.5 322.5V234L778.5 183L698.5 198L747 234V298.5L713 317.5C713 317.5 649.432 354.903 604.5 373C579.583 383.036 539.5 399.5 539.5 399.5L421 333.5V49.5L410.5 73L373 261.5L358 264.5L268 191L235 110L266 226.5C266 226.5 427.147 437.074 530.403 572H538Z" fill="white" fill-opacity="0.15"/>
<path d="M617 136L636 128.5L602 62.5L401 0L617 136Z" fill="white" fill-opacity="0.4"/>
<path d="M778.5 183L617 136L546.5 201.5L713 317.5L747 298.5V234L698.5 198L778.5 183Z" fill="white"/>
<path d="M353 237.5L373 261.5L410.5 73L412.5 42.5L353 237.5Z" fill="white"/>
<path d="M319.459 461C319.459 461 447.5 547 530.403 572C427.147 437.074 266 226.5 266 226.5L319.459 461Z" fill="white" fill-opacity="0.8"/>
<path d="M235 110L87.5 405C185.237 400.966 319.459 461 319.459 461L266 226.5L235 110Z" fill="white" fill-opacity="0.2"/>
<path d="M713 317.5L546.5 201.5L540.5 207.5L539.5 399.5L605 378.5L713 317.5Z" fill="white" fill-opacity="0.8"/>
</svg>
